name C:\Users\u0101727\Documents\MyRepositories\upper-imu-dc\Results\main_tracking\Case_44\FLX01_linearAccelerations_groundFrame.mot
datacolumns 4
datarows 58
range 2.01000000 2.58000000
endheader 
time	radius_imu_x	radius_imu_y	radius_imu_z	
          2.01000000	         -1.08749549	          9.47234059	          0.94437164	
          2.02000000	         -1.06262891	          9.45087065	          0.95194806	
          2.03000000	         -1.03530782	          9.42909099	          0.95654907	
          2.04000000	         -1.00585557	          9.40737278	          0.95847273	
          2.05000000	         -0.97460729	          9.38606296	          0.95797917	
          2.06000000	         -0.94190701	          9.36548153	          0.95527002	
          2.07000000	         -0.90811975	          9.34593370	          0.95050456	
          2.08000000	         -0.87363652	          9.32771144	          0.94383118	
          2.09000000	         -0.83886078	          9.31107807	          0.93541333	
          2.10000000	         -0.80417916	          9.29624303	          0.92544340	
          2.11000000	         -0.76992329	          9.28333578	          0.91414388	
          2.12000000	         -0.73633588	          9.27238842	          0.90175794	
          2.13000000	         -0.70355690	          9.26333563	          0.88853632	
          2.14000000	         -0.67163794	          9.25603374	          0.87472625	
          2.15000000	         -0.64057554	          9.25029076	          0.86055955	
          2.16000000	         -0.61034240	          9.24589438	          0.84623226	
          2.17000000	         -0.58090257	          9.24262986	          0.83187678	
          2.18000000	         -0.55221029	          9.24028742	          0.81753693	
          2.19000000	         -0.52419958	          9.23866265	          0.80315772	
          2.20000000	         -0.49677547	          9.23755579	          0.78859583	
          2.21000000	         -0.46982029	          9.23677786	          0.77364841	
          2.22000000	         -0.44322173	          9.23616740	          0.75809251	
          2.23000000	         -0.41691030	          9.23560876	          0.74172833	
          2.24000000	         -0.39088137	          9.23503606	          0.72442120	
          2.25000000	         -0.36518723	          9.23441793	          0.70613334	
          2.26000000	         -0.33990362	          9.23373127	          0.68693425	
          2.27000000	         -0.31508727	          9.23293854	          0.66698403	
          2.28000000	         -0.29074379	          9.23198150	          0.64649475	
          2.29000000	         -0.26681849	          9.23079503	          0.62568231	
          2.30000000	         -0.24320969	          9.22933370	          0.60472077	
          2.31000000	         -0.21979513	          9.22759824	          0.58370849	
          2.32000000	         -0.19646386	          9.22565387	          0.56265075	
          2.33000000	         -0.17315215	          9.22363983	          0.54146174	
          2.34000000	         -0.14987768	          9.22176749	          0.51998816	
          2.35000000	         -0.12675636	          9.22030173	          0.49805237	
          2.36000000	         -0.10399337	          9.21952893	          0.47550089	
          2.37000000	         -0.08185571	          9.21972405	          0.45223557	
          2.38000000	         -0.06063827	          9.22112640	          0.42821298	
          2.39000000	         -0.04062794	          9.22392447	          0.40341917	
          2.40000000	         -0.02207051	          9.22824705	          0.37784177	
          2.41000000	         -0.00514909	          9.23415867	          0.35145996	
          2.42000000	          0.01002282	          9.24165896	          0.32425831	
          2.43000000	          0.02339784	          9.25068604	          0.29625506	
          2.44000000	          0.03498548	          9.26112412	          0.26752970	
          2.45000000	          0.04483944	          9.27281412	          0.23824025	
          2.46000000	          0.05304455	          9.28556490	          0.20862819	
          2.47000000	          0.05970607	          9.29916353	          0.17901276	
          2.48000000	          0.06494032	          9.31338488	          0.14977736	
          2.49000000	          0.06886328	          9.32800194	          0.12135008	
          2.50000000	          0.07157903	          9.34279783	          0.09417621	
          2.51000000	          0.07317675	          9.35757712	          0.06867976	
          2.52000000	          0.07374088	          9.37217163	          0.04521721	
          2.53000000	          0.07336962	          9.38643770	          0.02403701	
          2.54000000	          0.07219307	          9.40024764	          0.00525960	
          2.55000000	          0.07038495	          9.41348182	         -0.01111740	
          2.56000000	          0.06816308	          9.42602631	         -0.02519377	
          2.57000000	          0.06577543	          9.43777648	         -0.03712952	
          2.58000000	          0.06347309	          9.44864333	         -0.04710525	
